<svg width="76.29" height="41.85" viewBox="0 0 76.29 41.85" xmlns="http://www.w3.org/2000/svg"><g id="svgGroup" stroke-linecap="round" fill-rule="evenodd" font-size="9pt" stroke-width="0.25mm" fill="none" style="stroke-width:0.25mm;fill:none"><path d="M 8.79 28.44 Q 4.8 28.44 2.4 26.925 A 4.898 4.898 0 0 1 0.084 23.404 A 7.062 7.062 0 0 1 0 22.29 A 7.667 7.667 0 0 1 0.053 21.357 Q 0.11 20.897 0.227 20.519 A 2.961 2.961 0 0 1 0.57 19.77 A 1.826 1.826 0 0 1 1.884 18.926 A 2.513 2.513 0 0 1 2.25 18.9 A 2.554 2.554 0 0 1 2.826 18.962 A 1.783 1.783 0 0 1 3.57 19.32 Q 4.08 19.74 4.08 20.4 Q 4.08 20.916 4.014 21.321 A 3.798 3.798 0 0 1 3.99 21.45 Q 3.99 21.566 3.948 21.85 A 10.037 10.037 0 0 1 3.945 21.87 Q 3.9 22.17 3.9 22.5 A 2.06 2.06 0 0 0 4.205 23.622 Q 4.545 24.162 5.265 24.51 Q 6.63 25.17 9.09 25.17 A 11.566 11.566 0 0 0 10.575 25.081 Q 12.09 24.884 13.08 24.255 A 3.305 3.305 0 0 0 13.958 23.465 Q 14.485 22.768 14.518 21.818 A 3.685 3.685 0 0 0 14.52 21.69 Q 14.52 20.67 13.86 19.935 A 5.229 5.229 0 0 0 12.713 18.985 A 6.338 6.338 0 0 0 12.21 18.705 Q 11.316 18.258 9.761 17.627 A 76.781 76.781 0 0 0 9.42 17.49 A 45.033 45.033 0 0 1 7.87 16.855 Q 7.148 16.542 6.538 16.241 A 19.957 19.957 0 0 1 5.655 15.78 Q 4.2 14.97 3.165 13.575 Q 2.13 12.18 2.13 10.11 A 6.867 6.867 0 0 1 2.604 7.54 A 6.475 6.475 0 0 1 3.285 6.27 Q 4.44 4.59 6.615 3.66 A 11.113 11.113 0 0 1 9.142 2.934 Q 10.352 2.73 11.73 2.73 A 12.985 12.985 0 0 1 14.204 2.957 A 10.86 10.86 0 0 1 15.75 3.375 A 7.239 7.239 0 0 1 17.442 4.22 A 5.982 5.982 0 0 1 18.675 5.34 A 4.728 4.728 0 0 1 19.735 7.909 A 6.211 6.211 0 0 1 19.77 8.58 A 10.132 10.132 0 0 1 19.725 9.57 Q 19.622 10.613 19.285 11.275 A 2.729 2.729 0 0 1 19.2 11.43 A 2.054 2.054 0 0 1 18.686 12.023 Q 18.266 12.344 17.688 12.384 A 2.43 2.43 0 0 1 17.52 12.39 A 2.093 2.093 0 0 1 16.866 12.292 A 1.771 1.771 0 0 1 16.215 11.91 A 1.689 1.689 0 0 1 15.861 11.464 A 1.444 1.444 0 0 1 15.69 10.77 A 6.321 6.321 0 0 1 15.719 10.157 A 5.01 5.01 0 0 1 15.78 9.72 Q 15.867 8.847 15.87 8.595 A 1.448 1.448 0 0 0 15.87 8.58 A 1.978 1.978 0 0 0 15.127 6.984 A 2.924 2.924 0 0 0 14.64 6.66 A 5.232 5.232 0 0 0 13.272 6.168 Q 12.502 6 11.58 6 Q 9 6 7.635 6.945 Q 6.359 7.828 6.276 9.38 A 4.104 4.104 0 0 0 6.27 9.6 A 3.067 3.067 0 0 0 6.466 10.711 A 2.808 2.808 0 0 0 6.975 11.55 A 5.651 5.651 0 0 0 8.318 12.67 A 6.695 6.695 0 0 0 8.73 12.9 Q 9.679 13.388 11.312 14.047 A 67.795 67.795 0 0 0 11.67 14.19 A 57.551 57.551 0 0 1 13.131 14.808 Q 13.778 15.093 14.328 15.358 A 23.612 23.612 0 0 1 15.33 15.87 Q 16.71 16.62 17.685 17.91 Q 18.66 19.2 18.66 21.09 A 7.418 7.418 0 0 1 18.283 23.512 A 6.065 6.065 0 0 1 15.975 26.535 A 9.578 9.578 0 0 1 12.948 27.934 Q 11.11 28.44 8.79 28.44 Z" id="0" /><path d="M 33.664 25.902 A 8.699 8.699 0 0 1 33.642 25.92 Q 33.023 26.427 32.254 26.899 A 16.09 16.09 0 0 1 31.725 27.21 Q 29.7 28.35 27.39 28.35 A 9.328 9.328 0 0 1 25.433 28.157 Q 24.183 27.889 23.241 27.248 A 5.341 5.341 0 0 1 22.5 26.64 A 5.66 5.66 0 0 1 20.934 23.713 A 8.369 8.369 0 0 1 20.76 21.96 Q 20.76 19.89 21.63 18.105 A 7.318 7.318 0 0 1 23.227 15.921 A 6.907 6.907 0 0 1 24.045 15.27 Q 25.59 14.22 27.54 14.22 A 4.756 4.756 0 0 1 28.748 14.366 A 3.459 3.459 0 0 1 30.33 15.255 A 3.438 3.438 0 0 1 31.288 17.074 A 5.004 5.004 0 0 1 31.38 18.06 A 4.843 4.843 0 0 1 29.941 21.569 A 5.986 5.986 0 0 1 29.895 21.615 Q 28.508 23.002 25.328 23.853 A 23.231 23.231 0 0 1 24.87 23.97 A 2.476 2.476 0 0 0 26.41 25.179 Q 26.866 25.315 27.427 25.343 A 5.967 5.967 0 0 0 27.72 25.35 A 4.684 4.684 0 0 0 28.879 25.194 Q 29.771 24.966 30.795 24.405 A 10.156 10.156 0 0 0 32.624 23.126 M 24.39 21.57 L 24.39 21.63 Q 25.775 21.301 26.701 20.715 A 4.737 4.737 0 0 0 27.18 20.37 Q 28.2 19.53 28.2 18.42 A 1.674 1.674 0 0 0 28.156 18.025 A 1.163 1.163 0 0 0 27.885 17.505 Q 27.57 17.16 27.03 17.16 A 1.824 1.824 0 0 0 25.777 17.664 Q 25.526 17.891 25.302 18.22 A 4.318 4.318 0 0 0 25.155 18.45 A 5.325 5.325 0 0 0 24.516 20.172 A 7.374 7.374 0 0 0 24.39 21.57 Z" id="1" /><path d="M 32.624 23.126 A 8.369 8.369 0 0 1 32.55 21.96 Q 32.55 19.89 33.42 18.105 A 7.318 7.318 0 0 1 35.017 15.921 A 6.907 6.907 0 0 1 35.835 15.27 Q 37.38 14.22 39.33 14.22 A 4.756 4.756 0 0 1 40.538 14.366 A 3.459 3.459 0 0 1 42.12 15.255 A 3.438 3.438 0 0 1 43.078 17.074 A 5.004 5.004 0 0 1 43.17 18.06 A 4.843 4.843 0 0 1 41.731 21.569 A 5.986 5.986 0 0 1 41.685 21.615 Q 40.298 23.002 37.118 23.853 A 23.231 23.231 0 0 1 36.66 23.97 A 2.476 2.476 0 0 0 38.2 25.179 Q 38.656 25.315 39.217 25.343 A 5.967 5.967 0 0 0 39.51 25.35 A 4.684 4.684 0 0 0 40.669 25.194 Q 41.561 24.966 42.585 24.405 A 10.156 10.156 0 0 0 44.25 23.267 M 36.18 21.57 L 36.18 21.63 Q 37.565 21.301 38.491 20.715 A 4.737 4.737 0 0 0 38.97 20.37 Q 39.99 19.53 39.99 18.42 A 1.674 1.674 0 0 0 39.946 18.025 A 1.163 1.163 0 0 0 39.675 17.505 Q 39.36 17.16 38.82 17.16 A 1.824 1.824 0 0 0 37.567 17.664 Q 37.316 17.891 37.092 18.22 A 4.318 4.318 0 0 0 36.945 18.45 A 5.325 5.325 0 0 0 36.306 20.172 A 7.374 7.374 0 0 0 36.18 21.57 Z M 44.944 26.296 A 12.63 12.63 0 0 1 44.044 26.899 A 16.09 16.09 0 0 1 43.515 27.21 Q 41.49 28.35 39.18 28.35 A 9.328 9.328 0 0 1 37.223 28.157 Q 35.973 27.889 35.031 27.248 A 5.341 5.341 0 0 1 34.29 26.64 A 5.66 5.66 0 0 1 33.664 25.902" id="2" /><path d="M 44.25 23.267 A 9.881 9.881 0 0 1 45.27 18.975 Q 46.29 16.92 48.075 15.615 Q 49.86 14.31 52.08 14.07 A 48.088 48.088 0 0 1 52.745 9.461 Q 53.182 7.248 53.813 5.353 A 26.332 26.332 0 0 1 54.255 4.125 A 12.372 12.372 0 0 1 55.005 2.518 Q 56.062 0.653 57.454 0.169 A 3.076 3.076 0 0 1 58.47 0 A 2.474 2.474 0 0 1 60.362 0.86 A 3.654 3.654 0 0 1 60.615 1.17 Q 61.47 2.34 61.47 4.71 Q 61.47 7.322 60.473 10.623 A 35.392 35.392 0 0 1 59.82 12.57 A 54.114 54.114 0 0 1 57.324 18.289 A 66.362 66.362 0 0 1 55.41 21.81 A 13.913 13.913 0 0 0 55.488 22.618 Q 55.631 23.738 55.935 24.3 A 2.029 2.029 0 0 0 56.166 24.646 Q 56.323 24.832 56.507 24.933 A 0.948 0.948 0 0 0 56.97 25.05 A 2.038 2.038 0 0 0 57.8 24.864 Q 58.08 24.741 58.362 24.535 A 4.194 4.194 0 0 0 58.62 24.33 Q 59.083 23.933 59.718 23.246 A 32.125 32.125 0 0 0 60.112 22.811 M 57.199 4.321 A 12.524 12.524 0 0 0 57 4.965 A 23.384 23.384 0 0 0 56.628 6.504 Q 56.459 7.309 56.309 8.248 A 56.811 56.811 0 0 0 56.025 10.26 A 91.505 91.505 0 0 0 55.544 15.334 A 103.378 103.378 0 0 0 55.44 17.1 A 56.356 56.356 0 0 0 57.064 13.21 Q 58.51 9.313 58.752 6.447 A 13.197 13.197 0 0 0 58.8 5.34 A 10.786 10.786 0 0 0 58.782 4.693 Q 58.745 4.08 58.633 3.665 A 2.771 2.771 0 0 0 58.605 3.57 A 2.608 2.608 0 0 0 58.529 3.356 Q 58.381 2.993 58.195 2.947 A 0.227 0.227 0 0 0 58.14 2.94 Q 57.669 2.94 57.199 4.321 Z M 49.5 25.32 Q 50.07 25.32 50.64 24.855 A 3.778 3.778 0 0 0 50.983 24.532 Q 51.334 24.163 51.772 23.564 A 19.667 19.667 0 0 0 52.08 23.13 Q 51.78 21.51 51.78 19.5 A 26.591 26.591 0 0 1 51.784 19.084 Q 51.794 18.45 51.831 17.411 A 184.717 184.717 0 0 1 51.84 17.16 Q 50.19 17.67 49.095 19.365 Q 48 21.06 48 23.13 A 4.733 4.733 0 0 0 48.057 23.902 Q 48.285 25.271 49.417 25.318 A 1.971 1.971 0 0 0 49.5 25.32 Z M 60.494 26.266 A 14.681 14.681 0 0 1 59.659 26.977 A 13.469 13.469 0 0 1 59.25 27.285 Q 57.908 28.258 56.59 28.342 A 3.912 3.912 0 0 1 56.34 28.35 A 3.316 3.316 0 0 1 53.632 26.986 Q 53.229 26.475 52.903 25.774 A 8.091 8.091 0 0 1 52.86 25.68 Q 51.6 27.27 50.655 27.81 Q 49.71 28.35 48.45 28.35 Q 46.62 28.35 45.435 26.985 A 4.723 4.723 0 0 1 44.944 26.296" id="3" /><path d="M 60.494 26.266 A 4.726 4.726 0 0 0 60.945 27.105 A 3.662 3.662 0 0 0 61.226 27.466 A 2.477 2.477 0 0 0 63.15 28.35 Q 64.341 28.35 65.413 27.243 A 5.617 5.617 0 0 0 65.43 27.225 A 5.17 5.17 0 0 0 65.991 26.523 Q 66.351 25.987 66.641 25.303 A 11.113 11.113 0 0 0 67.11 23.94 Q 66.908 25.493 66.739 26.505 A 28.806 28.806 0 0 1 66.63 27.12 L 66.54 27.81 A 60.992 60.992 0 0 0 64.59 29.365 Q 63.694 30.112 62.954 30.8 A 25.239 25.239 0 0 0 61.575 32.175 A 25.821 25.821 0 0 0 61.557 32.195 Q 60.418 33.434 59.75 34.488 A 8.016 8.016 0 0 0 59.175 35.55 A 8.369 8.369 0 0 0 58.849 36.418 A 6.726 6.726 0 0 0 58.53 38.43 A 4.399 4.399 0 0 0 58.564 38.983 A 3.173 3.173 0 0 0 59.49 40.905 A 3.16 3.16 0 0 0 60.831 41.694 A 4.038 4.038 0 0 0 61.98 41.85 A 4.157 4.157 0 0 0 64.241 41.196 Q 64.998 40.718 65.657 39.892 A 9.784 9.784 0 0 0 66.675 38.295 A 22.508 22.508 0 0 0 67.869 35.513 Q 68.415 33.987 68.879 32.152 A 56.236 56.236 0 0 0 69.66 28.53 L 75.42 24.66 A 2.377 2.377 0 0 0 75.757 24.391 A 1.727 1.727 0 0 0 76.08 23.97 A 1.483 1.483 0 0 0 76.201 23.661 Q 76.29 23.339 76.29 22.89 Q 76.29 22.605 76.234 22.369 A 1.488 1.488 0 0 0 76.065 21.945 A 0.982 0.982 0 0 0 75.971 21.813 A 0.656 0.656 0 0 0 75.45 21.57 Q 75.244 21.57 74.995 21.683 A 2.162 2.162 0 0 0 74.76 21.81 A 77.6 77.6 0 0 0 73.519 22.644 A 90.011 90.011 0 0 0 70.26 24.99 L 71.04 20.16 Q 71.674 16.577 71.793 15.41 A 4.385 4.385 0 0 0 71.82 15 A 1.26 1.26 0 0 0 71.82 14.964 Q 71.808 14.572 71.55 14.4 Q 71.348 14.265 70.909 14.231 A 4.175 4.175 0 0 0 70.59 14.22 Q 69.998 14.22 69.584 14.359 A 1.576 1.576 0 0 0 69.105 14.61 A 1.611 1.611 0 0 0 68.804 14.926 Q 68.658 15.125 68.545 15.387 A 3.701 3.701 0 0 0 68.37 15.9 Q 67.92 17.569 67.452 18.909 A 26.509 26.509 0 0 1 66.885 20.4 A 26.721 26.721 0 0 1 66.738 20.745 Q 66.055 22.317 65.445 23.13 Q 64.968 23.766 64.603 23.953 A 0.626 0.626 0 0 1 64.32 24.03 A 0.498 0.498 0 0 1 63.932 23.865 Q 63.763 23.678 63.712 23.277 A 3.081 3.081 0 0 1 63.69 22.89 Q 63.69 22.395 63.775 21.709 A 19.023 19.023 0 0 1 63.87 21.045 Q 64.05 19.92 64.29 18.69 Q 64.383 18.226 64.508 17.706 A 37.203 37.203 0 0 1 64.77 16.68 A 59.681 59.681 0 0 0 64.859 16.302 Q 65.1 15.265 65.1 15.06 A 1.355 1.355 0 0 0 65.1 15.037 Q 65.093 14.634 64.845 14.43 A 0.629 0.629 0 0 0 64.722 14.352 Q 64.453 14.22 63.93 14.22 A 6.525 6.525 0 0 0 63.725 14.223 Q 63.094 14.243 62.666 14.388 A 1.671 1.671 0 0 0 62.22 14.61 A 1.757 1.757 0 0 0 61.923 14.883 Q 61.592 15.265 61.38 15.9 Q 60.69 18 60.39 19.875 A 22.779 22.779 0 0 0 60.18 21.651 A 29.403 29.403 0 0 0 60.112 22.811 M 62.31 38.94 A 0.862 0.862 0 0 0 62.781 38.781 Q 63.289 38.448 63.868 37.422 A 10.84 10.84 0 0 0 63.99 37.2 A 10.718 10.718 0 0 0 64.506 36.057 Q 64.968 34.874 65.43 33.121 A 55.238 55.238 0 0 0 65.85 31.41 A 27.022 27.022 0 0 0 64.531 32.595 Q 63.884 33.218 63.383 33.802 A 10.75 10.75 0 0 0 62.505 34.965 Q 61.852 35.977 61.611 36.828 A 3.46 3.46 0 0 0 61.47 37.77 Q 61.47 38.185 61.599 38.481 A 1.187 1.187 0 0 0 61.665 38.61 A 0.645 0.645 0 0 0 62.137 38.926 A 1.038 1.038 0 0 0 62.31 38.94 Z" id="4" /></g></svg>